<?xml version="1.0" standalone="no"?>
<!DOCTYPE svg PUBLIC "-//W3C//DTD SVG 20010904//EN"
 "http://www.w3.org/TR/2001/REC-SVG-20010904/DTD/svg10.dtd">
<svg version="1.0" xmlns="http://www.w3.org/2000/svg"
 width="700.000000pt" height="700.000000pt" viewBox="0 0 700.000000 700.000000"
 preserveAspectRatio="xMidYMid meet">
<metadata>
Created by potrace 1.14, written by Peter Selinger 2001-2017
</metadata>
<g transform="translate(0.000000,700.000000) scale(0.100000,-0.100000)"
fill="#000000" stroke="none">
<path d="M2500 3500 l0 -3000 1000 0 1000 0 0 3000 0 3000 -1000 0 -1000 0 0
-3000z"/>
<path d="M5005 6490 c3 -5 2 -10 -4 -10 -6 0 -7 -11 -2 -27 4 -16 5 -40 1 -54
-4 -15 -4 -32 0 -39 4 -7 4 -25 0 -40 -4 -15 -4 -33 0 -40 4 -7 4 -25 0 -40
-4 -15 -4 -33 0 -40 4 -7 4 -25 0 -40 -4 -15 -4 -33 0 -40 4 -7 4 -25 0 -40
-4 -15 -4 -33 0 -40 4 -7 4 -25 0 -40 -4 -15 -4 -33 0 -40 4 -7 4 -25 0 -40
-4 -15 -4 -33 0 -40 4 -7 4 -25 0 -40 -4 -15 -4 -33 0 -40 4 -7 4 -25 0 -40
-4 -15 -4 -33 0 -40 4 -7 4 -25 0 -40 -4 -15 -4 -33 0 -40 4 -7 4 -25 0 -40
-4 -15 -4 -33 0 -40 4 -7 4 -25 0 -40 -4 -15 -4 -33 0 -40 4 -7 4 -25 0 -40
-4 -15 -4 -33 0 -40 4 -7 4 -25 0 -40 -4 -15 -4 -33 0 -40 4 -7 4 -25 0 -40
-4 -15 -4 -33 0 -40 4 -7 4 -25 0 -40 -4 -15 -4 -33 0 -40 4 -7 4 -25 0 -40
-4 -15 -4 -33 0 -40 4 -7 4 -25 0 -40 -4 -15 -4 -33 0 -40 4 -7 4 -25 0 -40
-4 -15 -4 -33 0 -40 4 -7 4 -25 0 -40 -4 -15 -4 -33 0 -40 4 -7 4 -25 0 -40
-4 -15 -4 -33 0 -40 4 -7 4 -25 0 -40 -4 -15 -4 -33 0 -40 4 -7 4 -25 0 -40
-4 -15 -4 -33 0 -40 4 -7 4 -25 0 -40 -4 -15 -4 -33 0 -40 5 -8 328 308 1004
984 l996 996 -1001 0 c-664 0 -998 -3 -994 -10z"/>
<path d="M880 2493 c-128 -20 -288 -71 -350 -111 -14 -8 -25 -14 -25 -11 0 5
-64 -40 -83 -58 -7 -7 -17 -13 -21 -13 -12 0 -145 -131 -188 -185 -36 -46
-113 -166 -113 -178 0 -2 -10 -26 -22 -53 -12 -27 -23 -51 -23 -54 -1 -3 -4
-12 -7 -20 -6 -14 -24 -86 -36 -140 -3 -14 -7 -283 -9 -598 l-4 -572 1000 0
c790 0 1000 3 1004 13 2 6 1 23 -3 37 -4 14 -4 36 0 50 4 14 3 35 -1 47 -5 13
-4 25 2 28 5 4 7 11 3 16 -3 6 -6 32 -5 57 3 132 3 151 -4 161 -3 6 -1 11 5
11 6 0 8 5 5 11 -7 10 -8 67 -2 139 1 19 -1 45 -5 57 -4 12 -3 25 2 28 5 3 5
18 1 33 -5 15 -5 36 -1 47 4 11 4 32 -1 47 -4 16 -3 30 2 34 5 3 7 10 3 15 -5
9 -8 91 -4 114 6 30 -6 184 -21 255 -22 113 -81 257 -142 347 -31 45 -42 59
-111 140 -51 60 -185 160 -269 201 -85 41 -166 71 -252 92 -49 12 -275 21
-325 13z"/>
<path d="M4998 2484 c-4 -3 -3 -18 1 -32 4 -15 5 -39 1 -53 -4 -15 -4 -32 0
-39 4 -7 4 -25 0 -40 -4 -15 -4 -33 0 -40 4 -7 4 -25 0 -40 -4 -15 -4 -33 0
-40 4 -7 4 -25 0 -40 -4 -15 -4 -33 0 -40 4 -7 4 -25 0 -40 -4 -15 -4 -33 0
-40 4 -7 4 -25 0 -40 -4 -15 -4 -33 0 -40 4 -7 4 -24 0 -39 -4 -14 -5 -35 -4
-46 4 -22 4 -26 5 -139 0 -44 2 -83 5 -88 3 -4 0 -8 -7 -8 -9 0 -9 -3 0 -14 8
-9 8 -16 2 -20 -6 -4 -7 -16 -2 -29 4 -12 5 -35 1 -52 -3 -16 -3 -51 0 -77 4
-27 3 -48 -1 -48 -4 0 -4 -13 1 -29 4 -15 5 -33 1 -39 -3 -5 -4 -47 -1 -91 3
-45 1 -81 -4 -81 -5 0 -3 -6 3 -14 8 -9 8 -16 2 -20 -6 -4 -7 -16 -2 -29 4
-12 5 -35 1 -52 -3 -16 -3 -51 0 -77 4 -27 3 -48 -1 -48 -4 0 -4 -13 1 -29 4
-15 5 -33 1 -39 -3 -5 -4 -47 -1 -91 3 -45 1 -81 -4 -81 -5 0 -3 -6 3 -14 8
-9 8 -16 2 -20 -5 -4 -6 -18 -2 -34 4 -15 5 -38 1 -52 -3 -14 -4 -33 -2 -43 4
-16 60 -17 1003 -17 l999 0 -995 995 c-547 547 -997 995 -998 995 -2 0 -6 -3
-9 -6z"/>
</g>
</svg>
